<mxfile host="65bd71144e">
    <diagram id="tPg7lvVMtvuBfPQgrAko" name="Страница 1">
        <mxGraphModel dx="811" dy="591" grid="1" gridSize="10" guides="1" tooltips="1" connect="1" arrows="1" fold="1" page="1" pageScale="1" pageWidth="827" pageHeight="1169" math="0" shadow="0">
            <root>
                <mxCell id="0"/>
                <mxCell id="1" parent="0"/>
                <mxCell id="76" style="edgeStyle=none;html=1;entryX=0;entryY=0.5;entryDx=0;entryDy=0;entryPerimeter=0;fontSize=12;endArrow=none;endFill=0;dashed=1;exitX=1;exitY=0.5;exitDx=0;exitDy=0;exitPerimeter=0;" parent="1" source="78" target="79" edge="1">
                    <mxGeometry relative="1" as="geometry">
                        <mxPoint x="300" y="91.87999999999998" as="sourcePoint"/>
                    </mxGeometry>
                </mxCell>
                <mxCell id="77" style="edgeStyle=none;html=1;exitX=0.5;exitY=1;exitDx=0;exitDy=0;exitPerimeter=0;" parent="1" source="78" target="84" edge="1">
                    <mxGeometry relative="1" as="geometry"/>
                </mxCell>
                <mxCell id="78" value="Начало" style="strokeWidth=1;html=1;shape=mxgraph.flowchart.terminator;whiteSpace=wrap;strokeColor=default;gradientColor=none;" parent="1" vertex="1">
                    <mxGeometry x="150" y="55.63000000000001" width="150" height="52.5" as="geometry"/>
                </mxCell>
                <mxCell id="79" value="" style="strokeWidth=1;html=1;shape=mxgraph.flowchart.annotation_2;align=left;labelPosition=right;pointerEvents=1;strokeColor=default;fontSize=13;gradientColor=none;" parent="1" vertex="1">
                    <mxGeometry x="307.5" y="40" width="50" height="83.75" as="geometry"/>
                </mxCell>
                <mxCell id="80" value="&lt;span style=&quot;font-size: 12px;&quot;&gt;&lt;font style=&quot;color: rgb(0, 0, 0);&quot;&gt;Алгоритм построения дерева Хаффмана&lt;/font&gt;&lt;/span&gt;" style="text;html=1;align=left;verticalAlign=middle;resizable=0;points=[];autosize=1;strokeColor=none;fillColor=none;fontSize=13;strokeWidth=1;" parent="1" vertex="1">
                    <mxGeometry x="345" y="42.42" width="260" height="30" as="geometry"/>
                </mxCell>
                <mxCell id="81" value="Вход:" style="text;html=1;align=left;verticalAlign=middle;resizable=0;points=[];autosize=1;strokeColor=none;fillColor=none;fontSize=12;" parent="1" vertex="1">
                    <mxGeometry x="345" y="68.82000000000001" width="50" height="30" as="geometry"/>
                </mxCell>
                <mxCell id="82" value="таблица частот символов." style="text;html=1;align=left;verticalAlign=middle;resizable=0;points=[];autosize=1;strokeColor=none;fillColor=none;fontSize=12;" parent="1" vertex="1">
                    <mxGeometry x="357.5" y="91.33" width="170" height="30" as="geometry"/>
                </mxCell>
                <mxCell id="83" style="edgeStyle=none;html=1;exitX=0.5;exitY=1;exitDx=0;exitDy=0;entryX=0.5;entryY=0;entryDx=0;entryDy=0;" parent="1" source="84" target="91" edge="1">
                    <mxGeometry relative="1" as="geometry">
                        <mxPoint x="225" y="259.38" as="targetPoint"/>
                    </mxGeometry>
                </mxCell>
                <mxCell id="84" value="Составить список узлов из всех элементов строки с весом, &lt;br&gt;равным частоте появления &lt;br&gt;символа в строке;" style="rounded=0;whiteSpace=wrap;html=1;strokeColor=default;strokeWidth=1;fontSize=12;gradientColor=none;" parent="1" vertex="1">
                    <mxGeometry x="122.5" y="140" width="205" height="80" as="geometry"/>
                </mxCell>
                <mxCell id="85" value="Конец" style="strokeWidth=1;html=1;shape=mxgraph.flowchart.terminator;whiteSpace=wrap;strokeColor=default;gradientColor=none;" parent="1" vertex="1">
                    <mxGeometry x="147.5" y="992.9800000000004" width="150" height="52.5" as="geometry"/>
                </mxCell>
                <mxCell id="86" style="edgeStyle=none;html=1;entryX=0;entryY=0.5;entryDx=0;entryDy=0;entryPerimeter=0;fontSize=12;endArrow=none;endFill=0;dashed=1;exitX=1;exitY=0.5;exitDx=0;exitDy=0;exitPerimeter=0;" parent="1" source="85" target="87" edge="1">
                    <mxGeometry relative="1" as="geometry">
                        <mxPoint x="462.5" y="979.2300000000004" as="sourcePoint"/>
                    </mxGeometry>
                </mxCell>
                <mxCell id="87" value="" style="strokeWidth=1;html=1;shape=mxgraph.flowchart.annotation_2;align=left;labelPosition=right;pointerEvents=1;strokeColor=default;fontSize=13;gradientColor=none;" parent="1" vertex="1">
                    <mxGeometry x="302.5" y="989.2300000000004" width="40" height="60" as="geometry"/>
                </mxCell>
                <mxCell id="88" value="Возвращает:" style="text;html=1;align=left;verticalAlign=middle;resizable=0;points=[];autosize=1;strokeColor=none;fillColor=none;fontSize=12;" parent="1" vertex="1">
                    <mxGeometry x="332.5" y="985.4800000000004" width="100" height="30" as="geometry"/>
                </mxCell>
                <mxCell id="89" value="указатель на голову&amp;nbsp;&lt;div&gt;&lt;font style=&quot;color: rgb(0, 0, 0);&quot;&gt;построенного дерева Хаффмана.&lt;/font&gt;&lt;/div&gt;" style="text;html=1;align=left;verticalAlign=middle;resizable=0;points=[];autosize=1;strokeColor=none;fillColor=none;fontSize=12;" parent="1" vertex="1">
                    <mxGeometry x="342.5" y="1009.2300000000005" width="210" height="40" as="geometry"/>
                </mxCell>
                <mxCell id="90" style="edgeStyle=orthogonalEdgeStyle;rounded=0;html=1;exitX=0.5;exitY=1;exitDx=0;exitDy=0;entryX=0.5;entryY=0;entryDx=0;entryDy=0;" parent="1" source="91" target="93" edge="1">
                    <mxGeometry relative="1" as="geometry"/>
                </mxCell>
                <mxCell id="91" value="Из списка выбрать два узла с наименьшим весом;" style="rounded=0;whiteSpace=wrap;html=1;strokeColor=default;strokeWidth=1;fontSize=12;gradientColor=none;" parent="1" vertex="1">
                    <mxGeometry x="122.5" y="260" width="205" height="80" as="geometry"/>
                </mxCell>
                <mxCell id="92" style="edgeStyle=orthogonalEdgeStyle;rounded=0;html=1;exitX=0.5;exitY=1;exitDx=0;exitDy=0;entryX=0.5;entryY=0;entryDx=0;entryDy=0;" parent="1" source="93" target="95" edge="1">
                    <mxGeometry relative="1" as="geometry"/>
                </mxCell>
                <mxCell id="93" value="Сформировать новый узел &lt;br&gt;с весом, равным сумме весов выбранных узлов;" style="rounded=0;whiteSpace=wrap;html=1;strokeColor=default;strokeWidth=1;fontSize=12;gradientColor=none;" parent="1" vertex="1">
                    <mxGeometry x="122.5" y="360" width="205" height="80" as="geometry"/>
                </mxCell>
                <mxCell id="94" style="edgeStyle=orthogonalEdgeStyle;rounded=0;html=1;exitX=0.5;exitY=1;exitDx=0;exitDy=0;entryX=0.5;entryY=0;entryDx=0;entryDy=0;" parent="1" source="95" target="97" edge="1">
                    <mxGeometry relative="1" as="geometry"/>
                </mxCell>
                <mxCell id="95" value="Присоединить к новому узлу&lt;br&gt;два выбранных в качестве дочерних;" style="rounded=0;whiteSpace=wrap;html=1;strokeColor=default;strokeWidth=1;fontSize=12;gradientColor=none;" parent="1" vertex="1">
                    <mxGeometry x="122.5" y="460" width="205" height="80" as="geometry"/>
                </mxCell>
                <mxCell id="96" style="edgeStyle=orthogonalEdgeStyle;rounded=0;html=1;exitX=0.5;exitY=1;exitDx=0;exitDy=0;entryX=0.5;entryY=0;entryDx=0;entryDy=0;" parent="1" source="97" target="100" edge="1">
                    <mxGeometry relative="1" as="geometry"/>
                </mxCell>
                <mxCell id="97" value="Добавить к списку сформированный узел вместо &lt;br&gt;двух объединенных узлов;" style="rounded=0;whiteSpace=wrap;html=1;strokeColor=default;strokeWidth=1;fontSize=12;gradientColor=none;" parent="1" vertex="1">
                    <mxGeometry x="122.5" y="560" width="205" height="80" as="geometry"/>
                </mxCell>
                <mxCell id="98" style="edgeStyle=orthogonalEdgeStyle;rounded=0;html=1;exitX=0;exitY=0.5;exitDx=0;exitDy=0;" parent="1" source="100" edge="1">
                    <mxGeometry relative="1" as="geometry">
                        <mxPoint x="225" y="240" as="targetPoint"/>
                        <Array as="points">
                            <mxPoint x="60" y="705"/>
                            <mxPoint x="60" y="240"/>
                        </Array>
                    </mxGeometry>
                </mxCell>
                <mxCell id="99" style="edgeStyle=orthogonalEdgeStyle;rounded=0;html=1;exitX=1;exitY=0.5;exitDx=0;exitDy=0;entryX=0.5;entryY=0;entryDx=0;entryDy=0;" parent="1" source="100" target="102" edge="1">
                    <mxGeometry relative="1" as="geometry">
                        <Array as="points">
                            <mxPoint x="390" y="705"/>
                            <mxPoint x="390" y="770"/>
                            <mxPoint x="225" y="770"/>
                        </Array>
                    </mxGeometry>
                </mxCell>
                <mxCell id="100" value="&lt;font style=&quot;color: rgb(0, 0, 0);&quot;&gt;В списке один узел?&lt;/font&gt;" style="rhombus;whiteSpace=wrap;html=1;" parent="1" vertex="1">
                    <mxGeometry x="122.5" y="660" width="205" height="90" as="geometry"/>
                </mxCell>
                <mxCell id="101" style="edgeStyle=orthogonalEdgeStyle;rounded=0;html=1;exitX=0.477;exitY=1.002;exitDx=0;exitDy=0;entryX=0.509;entryY=0.008;entryDx=0;entryDy=0;entryPerimeter=0;exitPerimeter=0;" parent="1" source="107" target="85" edge="1">
                    <mxGeometry relative="1" as="geometry">
                        <mxPoint x="222.12999999999965" y="961.7600000000003" as="sourcePoint"/>
                        <mxPoint x="225" y="982.0000000000001" as="targetPoint"/>
                        <Array as="points">
                            <mxPoint x="223.5" y="963.6"/>
                            <mxPoint x="223.5" y="963.6"/>
                        </Array>
                    </mxGeometry>
                </mxCell>
                <mxCell id="102" value="Назначить оставшийся узел головой построенного дерева" style="rounded=0;whiteSpace=wrap;html=1;strokeColor=default;strokeWidth=1;fontSize=12;gradientColor=none;" parent="1" vertex="1">
                    <mxGeometry x="122.5" y="790" width="205" height="80" as="geometry"/>
                </mxCell>
                <mxCell id="105" value="Да" style="text;html=1;align=center;verticalAlign=middle;resizable=0;points=[];autosize=1;strokeColor=none;fillColor=none;" parent="1" vertex="1">
                    <mxGeometry x="345" y="675" width="40" height="30" as="geometry"/>
                </mxCell>
                <mxCell id="107" value="Присвоить каждому узлу дерева значение, равное строке&amp;nbsp;&lt;div&gt;&lt;font&gt;&lt;font&gt;&lt;font style=&quot;color: rgb(0, 0, 0);&quot;&gt;из &quot;0&quot; и &quot;1&quot;&amp;nbsp;&lt;/font&gt;&lt;span style=&quot;background-color: transparent;&quot;&gt;&lt;font style=&quot;color: rgb(0, 0, 0);&quot;&gt;(при обходе дерева&amp;nbsp;&lt;/font&gt;&lt;/span&gt;&lt;span style=&quot;background-color: transparent;&quot;&gt;&lt;font style=&quot;color: rgb(0, 0, 0);&quot;&gt;к левым листьям&amp;nbsp;&lt;/font&gt;&lt;/span&gt;&lt;/font&gt;&lt;span style=&quot;background-color: transparent;&quot;&gt;&lt;font style=&quot;color: rgb(0, 0, 0);&quot;&gt;добавляется &quot;0&quot;,&amp;nbsp;&lt;/font&gt;&lt;/span&gt;&lt;/font&gt;&lt;div&gt;&lt;span style=&quot;background-color: transparent;&quot;&gt;&lt;font style=&quot;color: rgb(0, 0, 0);&quot;&gt;к правым - 1)&lt;/font&gt;&lt;/span&gt;&lt;/div&gt;&lt;/div&gt;" style="rounded=0;whiteSpace=wrap;html=1;strokeColor=default;strokeWidth=1;fontSize=12;gradientColor=none;" parent="1" vertex="1">
                    <mxGeometry x="126.25" y="887.35" width="205" height="80" as="geometry"/>
                </mxCell>
                <mxCell id="108" style="edgeStyle=none;html=1;exitX=0.5;exitY=1;exitDx=0;exitDy=0;entryX=0.482;entryY=0.004;entryDx=0;entryDy=0;entryPerimeter=0;" parent="1" source="102" target="107" edge="1">
                    <mxGeometry relative="1" as="geometry"/>
                </mxCell>
            </root>
        </mxGraphModel>
    </diagram>
</mxfile>